<svg xmlns="http://www.w3.org/2000/svg" viewBox="0 0 420 96" role="img" aria-label="My CookBooks">
  <title>My CookBooks</title>
  <defs>
    <linearGradient id="cb-gradient" x1="0" y1="0" x2="1" y2="0">
      <stop offset="0%" stop-color="#22d3ee"></stop>
      <stop offset="100%" stop-color="#60a5fa"></stop>
    </linearGradient>
    
    
  </defs>

  
  <g transform="translate(8 16)" stroke="url(#cb-gradient)" fill="none">
    <path d="M22 8 C 18 12, 26 14, 22 18" stroke-width="2.5" stroke-linecap="round"></path>
    <path d="M32 5 C 28 10, 36 13, 32 18" stroke-width="2.5" stroke-linecap="round"></path>
    <path d="M42 8 C 38 12, 46 14, 42 18" stroke-width="2.5" stroke-linecap="round"></path>
    <path d="M6 26 L 32 30 L 58 26 L 58 52 L 32 56 L 6 52 Z" stroke-width="3" stroke-linejoin="round"></path>
    <line x1="32" y1="30" x2="32" y2="56" stroke-width="3"></line>
    <path d="M14 36 L 26 38" stroke-width="2" stroke-linecap="round"></path>
    <path d="M14 42 L 26 44" stroke-width="2" stroke-linecap="round"></path>
    <path d="M38 38 L 50 36" stroke-width="2" stroke-linecap="round"></path>
    <path d="M38 44 L 50 42" stroke-width="2" stroke-linecap="round"></path>
  </g>

  
  <text class="wordmark" x="92" y="70" fill="url(#cb-gradient)">My CookBooks</text>
</svg>